<svg xmlns="http://www.w3.org/2000/svg">
  <symbol id="vk-icon" width="24" height="24" viewBox="0 0 24 24">
    <g clip-path="url(#clip0_50982_97)">
      <path
        fill-rule="evenodd"
        clip-rule="evenodd"
        d="M23.45 5.948C23.616 5.402 23.45 5 22.655 5H20.03C19.362 5 19.054 5.347 18.887 5.73C18.887 5.73 17.552 8.926 15.661 11.002C15.049 11.604 14.771 11.795 14.437 11.795C14.27 11.795 14.019 11.604 14.019 11.057V5.948C14.019 5.292 13.835 5 13.279 5H9.151C8.734 5 8.483 5.304 8.483 5.593C8.483 6.214 9.429 6.358 9.526 8.106V11.904C9.526 12.737 9.373 12.888 9.039 12.888C8.149 12.888 5.984 9.677 4.699 6.003C4.45 5.288 4.198 5 3.527 5H0.9C0.15 5 0 5.347 0 5.73C0 6.412 0.89 9.8 4.145 14.281C6.315 17.341 9.37 19 12.153 19C13.822 19 14.028 18.632 14.028 17.997V15.684C14.028 14.947 14.186 14.8 14.715 14.8C15.105 14.8 15.772 14.992 17.33 16.467C19.11 18.216 19.403 19 20.405 19H23.03C23.78 19 24.156 18.632 23.94 17.904C23.702 17.18 22.852 16.129 21.725 14.882C21.113 14.172 20.195 13.407 19.916 13.024C19.527 12.533 19.638 12.314 19.916 11.877C19.916 11.877 23.116 7.451 23.449 5.948H23.45Z"
        fill="white"
      />
    </g>
    <defs>
      <clipPath id="clip0_50982_97">
        <rect width="24" height="24" fill="white" />
      </clipPath>
    </defs>
  </symbol>

  <symbol id="telegram-icon" width="24" height="24" viewBox="0 0 24 24">
    <path
      d="M22.4393 4.62225L19.2705 19.566C19.0313 20.6205 18.408 20.883 17.5223 20.3865L12.6938 16.8285L10.3643 19.0695C10.1063 19.3275 9.891 19.5428 9.39375 19.5428L9.741 14.6258L18.6893 6.54C19.0785 6.1935 18.6045 6.00075 18.0848 6.348L7.02225 13.314L2.25976 11.823C1.22401 11.4998 1.20526 10.7873 2.47576 10.29L21.1035 3.11325C21.966 2.79 22.7205 3.30525 22.4393 4.623V4.62225Z"
      fill="white"
    />
  </symbol>

  <symbol id="youtube-icon" width="24" height="24" viewBox="0 0 24 24">
    <path
      d="M19.1813 5H4.81331C3.30618 5 2 6.3 2 7.8V16.1C2 17.7 3.30618 19 4.81331 19H19.1813C20.7889 19 21.9946 17.7 21.9946 16.2V7.8C22.095 6.3 20.7889 5 19.1813 5ZM9.03326 15.4V8.6L15.8656 12L9.03326 15.4Z"
      fill="white"
    />
  </symbol>

  <symbol id="housing-icon" width="40" height="40" viewBox="0 0 40 40">
    <path d="M15.9015 34.8041H24.2549V22.646H15.9015V34.8041ZM22.7408 33.3289H17.4155V24.1212H22.6886V33.3289H22.7408Z" fill="#81B3D2"/>
    <path d="M38.4036 21.6278L39.5 20.5595L34.3313 15.5233V1.7882H27.1265V8.50314L19.9739 1.58472L0.5 20.6104L1.59639 21.6787L5.66867 17.7108V36.9399H3.63253V38.4152H36.994V36.9399H34.3313V17.6599L38.4036 21.6278ZM28.6406 3.31432H32.7651V14.0481L28.6406 10.0293V3.31432ZM32.8173 36.889H7.23494V16.1846L19.9739 3.72129L32.7651 16.1846V36.889H32.8173Z" fill="#81B3D2"/>
    <path d="M16.0582 15.4216C16.0582 17.609 17.8855 19.3895 20.0783 19.3895C22.3233 19.3895 24.1506 17.609 24.1506 15.4216C24.1506 13.2341 22.3233 11.5045 20.0783 11.5045C17.8333 11.5045 16.0582 13.2341 16.0582 15.4216ZM20.0783 12.878C21.4879 12.878 22.6888 13.9972 22.6888 15.4216C22.6888 16.7951 21.5402 17.9651 20.0783 17.9651C18.6687 17.9651 17.4679 16.846 17.4679 15.4216C17.4679 14.0481 18.6687 12.878 20.0783 12.878Z" fill="#81B3D2"/>
    <path d="M10.8895 22.646H9.32324V24.63H10.8895V22.646Z" fill="#81B3D2"/>
    <path d="M13.9698 22.646H12.4036V24.63H13.9698V22.646Z" fill="#81B3D2"/>
    <path d="M10.8895 25.6975H9.32324V27.6815H10.8895V25.6975Z" fill="#81B3D2"/>
    <path d="M13.9698 25.6975H12.4036V27.6815H13.9698V25.6975Z" fill="#81B3D2"/>
    <path d="M27.5443 22.646H25.978V24.63H27.5443V22.646Z" fill="#81B3D2"/>
    <path d="M30.6769 22.646H29.1106V24.63H30.6769V22.646Z" fill="#81B3D2"/>
    <path d="M27.5443 25.6975H25.978V27.6815H27.5443V25.6975Z" fill="#81B3D2"/>
    <path d="M30.6769 25.6975H29.1106V27.6815H30.6769V25.6975Z" fill="#81B3D2"/>
  </symbol>

  <symbol id="food-icon" width="40" height="36" viewBox="0 0 40 36">
    <path d="M37.7428 23.8505H2.25722C0.997375 23.8505 0 24.8635 0 26.0285V27.8014C0 28.9664 0.997375 29.9288 2.25722 29.9288H2.78215V30.4354C2.78215 33.2213 5.14436 35.45 7.979 35.45H32.021C34.9081 35.45 37.2178 33.1706 37.2178 30.4354V29.9288H37.7428C38.9501 29.9288 40 28.9664 40 27.7508V25.9779C40 24.8635 39.0026 23.8505 37.7428 23.8505ZM35.6955 30.4354C35.6955 32.3602 34.0682 33.9304 32.0735 33.9304H7.92651C5.93176 33.9304 4.30446 32.3602 4.30446 30.4354V29.9288H35.6955V30.4354ZM38.4252 27.7508C38.4252 28.1053 38.1102 28.4092 37.7428 28.4092H2.25722C1.88976 28.4092 1.5748 28.1053 1.5748 27.7508V25.9779C1.5748 25.674 1.88976 25.3701 2.25722 25.3701H37.7953C38.1627 25.3701 38.4777 25.674 38.4777 26.0285V27.7508H38.4252Z" fill="#81B3D2"/>
    <path d="M8.50395 19.7473L11.3386 21.7735L14.2257 19.7473L17.1129 21.7735L20 19.7473L22.8347 21.7735L25.7218 19.7473L28.6089 21.7735L31.4961 19.7473L34.3832 21.7735L37.6903 19.3928L36.7979 18.1771L34.3832 19.8486L31.4961 17.8225L28.6089 19.8486L25.7218 17.8225L22.8347 19.8486L20 17.8225L17.1129 19.8486L14.2257 17.8225L11.3386 19.8486L8.50395 17.8225L5.61682 19.8486L3.20212 18.1771L2.25723 19.3928L5.61682 21.7735L8.50395 19.7473Z" fill="#81B3D2"/>
    <path d="M37.2179 16.3032C37.2179 15.9993 37.2704 14.9862 37.2179 14.7836C36.8504 6.88169 29.2913 0.550049 20 0.550049C10.7087 0.550049 3.09712 6.88169 2.72967 14.7836C2.72967 14.9862 2.72967 15.9993 2.72967 16.3032H37.2179ZM20 2.06964C28.399 2.06964 35.3281 7.74279 35.6431 14.7836H4.30447C4.67193 7.74279 11.6011 2.06964 20 2.06964Z" fill="#81B3D2"/>
    <path d="M20 9.16113C20.5798 9.16113 21.0499 8.70757 21.0499 8.14807C21.0499 7.58857 20.5798 7.13501 20 7.13501C19.4202 7.13501 18.9501 7.58857 18.9501 8.14807C18.9501 8.70757 19.4202 9.16113 20 9.16113Z" fill="#81B3D2"/>
    <path d="M15.8005 6.67871C16.3803 6.67871 16.8504 6.22515 16.8504 5.66565C16.8504 5.10615 16.3803 4.65259 15.8005 4.65259C15.2207 4.65259 14.7506 5.10615 14.7506 5.66565C14.7506 6.22515 15.2207 6.67871 15.8005 6.67871Z" fill="#81B3D2"/>
    <path d="M24.1995 6.67871C24.7793 6.67871 25.2493 6.22515 25.2493 5.66565C25.2493 5.10615 24.7793 4.65259 24.1995 4.65259C23.6196 4.65259 23.1496 5.10615 23.1496 5.66565C23.1496 6.22515 23.6196 6.67871 24.1995 6.67871Z" fill="#81B3D2"/>
  </symbol>

  <symbol id="souvenir-icon" width="40" height="40" viewBox="0 0 40 40">
    <path d="M34.5778 12.2058H34.527H22.1841C29.0921 8.76156 29.6508 6.58358 29.3968 5.36796C28.8381 3.39259 26.5524 1.87307 24.419 2.68348C21.6254 3.74714 20.8635 7.9005 20.1016 10.8889C19.1365 7.84985 18.2222 4.0004 16.0381 2.02502C15.4286 1.46786 14.5143 0.910706 13.1429 1.01201C11.1111 1.21461 8.21587 3.69649 9.43492 6.48228C10.5524 9.16676 14.2603 10.8889 16.7492 12.2565H5.42222C4.60952 12.2565 4 12.9149 4 13.6747V19.3475C4 20.158 4.66032 20.7658 5.42222 20.7658H5.5746V39H34.527V20.7658H34.5778C35.3905 20.7658 36 20.1073 36 19.3475V13.6747C36 12.8643 35.3397 12.2058 34.5778 12.2058ZM25.2317 3.94975C26.2984 3.79779 27.7206 4.6082 27.873 5.57057C28.0762 6.93813 26.1968 8.2044 25.3333 8.76156C24.0635 9.62262 22.8444 10.0785 21.6762 10.7876C22.0825 8.91351 22.946 4.25365 25.2317 3.94975ZM13.7524 8.91351C12.6349 8.15375 10.5016 6.68488 10.5524 5.01341C10.6032 3.18999 13.4476 1.72112 14.9714 3.08868C16.9016 4.76016 17.8159 8.66026 18.527 11.3954C16.9016 10.585 15.3778 9.97717 13.7524 8.91351ZM16.7492 37.4805H7.04762V20.7658H16.7492V37.4805ZM16.7492 19.2462H5.52381V13.7253H16.7492V19.2462ZM21.8286 37.4805H18.2222V13.7253H21.8286V37.4805ZM33.0032 37.4805H23.3524V20.7658H33.054V37.4805H33.0032ZM34.4762 19.2462H23.3524V13.7253H34.4762V19.2462Z" fill="#81B3D2"/>
  </symbol>

  <symbol id="htmlacademy-icon" width="60" height="60" viewBox="0 0 60 60">
    <path fill="#2E368F" d="M30.2 5h-.2l-19.7 2.1v36.2l19.7 11.7 19.7-11.7v-36.2l-19.5-2.1zm17 36.8l-17.2 10.2-17.2-10.2v-14.8l17.1 10.2v1.8l-11.7-7v1.8l11.8 7.1v1.9l-11.8-7v1.8l11.8 7 11.9-7.1v-7.6l5.3-3.2v15.1zm-.1-17l-4.7 2.8-2.2 1.3-10.3-6.1v1.8l8.8 5.3h-.1l-.2.1-1.3.7-7.3-4.3v1.8l5.8 3.4-1.4.9-4.3-2.6v1.8l2.9 1.7-2.9 1.7-17-10.1 17-10.2 17.2 10zm.1-1.8l-17.3-10.2-17.1 10.2v-13.6l17.2-1.8 17.2 1.8v13.6z"/>
  </symbol>

</svg>
